<svg xmlns="http://www.w3.org/2000/svg" version="1.1" xmlns:xlink="http://www.w3.org/1999/xlink" xmlns:svgjs="http://svgjs.dev/svgjs" width="1000" height="1000" viewBox="0 0 1000 1000"><rect width="1000" height="1000" fill="#c9efc7"></rect><g transform="matrix(0.7,0,0,0.7,149.84897959183667,150.19913061224486)"><svg viewBox="0 0 343 343" data-background-color="#c9efc7" preserveAspectRatio="xMidYMid meet" height="999" width="1000" xmlns="http://www.w3.org/2000/svg" xmlns:xlink="http://www.w3.org/1999/xlink"><g id="tight-bounds" transform="matrix(1,0,0,1,0.0740000000000407,0.07400000000001228)"><svg viewBox="0 0 342.85155851775386 342.85155851775386" height="342.85155851775386" width="342.85155851775386"><g><svg></svg></g><g><svg viewBox="0 0 342.85155851775386 342.85155851775386" height="342.85155851775386" width="342.85155851775386"><g><path d="M0 171.426c0-94.676 76.75-171.426 171.426-171.426 94.676 0 171.426 76.75 171.426 171.426 0 94.676-76.75 171.426-171.426 171.426-94.676 0-171.426-76.75-171.426-171.426zM171.426 339.536c92.845 0 168.111-75.266 168.11-168.11 0-92.845-75.266-168.111-168.11-168.111-92.845 0-168.111 75.266-168.111 168.111 0 92.845 75.266 168.111 168.111 168.11z" data-fill-palette-color="tertiary" fill="#454545" stroke="transparent"></path><ellipse rx="164.56874808852186" ry="164.56874808852186" cx="171.42577925887693" cy="171.42577925887693" fill="#454545" stroke="transparent" stroke-width="0" fill-opacity="1" data-fill-palette-color="tertiary"></ellipse></g><g transform="matrix(1,0,0,1,64.84655864529837,104.98540064873461)"><svg viewBox="0 0 213.1584412271571 132.88075722028464" height="132.88075722028464" width="213.1584412271571"><g><svg viewBox="0 0 213.1584412271571 132.88075722028464" height="132.88075722028464" width="213.1584412271571"><g><svg viewBox="0 0 213.1584412271571 132.88075722028464" height="132.88075722028464" width="213.1584412271571"><g transform="matrix(1,0,0,1,0,80.73873970180996)"><svg viewBox="0 0 213.1584412271571 52.14201751847467" height="52.14201751847467" width="213.1584412271571"><g id="textblocktransform"><svg viewBox="0 0 213.1584412271571 52.14201751847467" height="52.14201751847467" width="213.1584412271571" id="textblock"><g><svg viewBox="0 0 213.1584412271571 36.76134588555366" height="36.76134588555366" width="213.1584412271571"><g transform="matrix(1,0,0,1,0,0)"><svg width="213.1584412271571" viewBox="1.4500000476837158 -38.150001525878906 222.9300079345703 38.45000076293945" height="36.76134588555366" data-palette-color="#c9efc7"><path d="M6.65 0L1.45 0 13.75-36.85 20.15-36.85 32.45 0 27.2 0 23.95-9.65 9.85-9.65 6.65 0ZM16.9-32.45L11.05-14.2 22.7-14.2 16.9-32.45ZM42.6 0L37.55 0 37.55-36.85 42.6-36.85 42.6-20.6 48.55-20.6 57.9-36.85 63.25-36.85 52.55-18.4 63.45 0 58.05 0 48.55-16.1 42.6-16.1 42.6 0ZM72.3 0L67.45 0 71.64-36.85 76.65-36.85 86.05-6.1 95.3-36.85 100.34-36.85 104.65 0 99.8 0 96.2-30.7 97.05-30.6 88.34 0 83.7 0 74.84-30.6 75.75-30.65 72.3 0ZM137.44 0L132.39 0 132.39-32.35 121.39-32.35 121.39-36.85 148.44-36.85 148.44-32.35 137.44-32.35 137.44 0ZM160.79 0.3L160.79 0.3Q156.54 0.3 154.01-0.95 151.49-2.2 150.41-5.18 149.34-8.15 149.34-13.4L149.34-13.4Q149.34-18.75 150.41-21.73 151.49-24.7 153.99-25.9 156.49-27.1 160.74-27.1L160.74-27.1Q164.44-27.1 166.71-26.33 168.99-25.55 170.06-23.58 171.14-21.6 171.14-18.1L171.14-18.1Q171.14-15.65 170.16-14.2 169.19-12.75 167.41-12.1 165.64-11.45 163.19-11.45L163.19-11.45 154.34-11.45Q154.39-8.55 155.01-6.83 155.64-5.1 157.26-4.33 158.89-3.55 162.04-3.55L162.04-3.55 170.39-3.55 170.39-0.55Q168.24-0.25 165.99 0.03 163.74 0.3 160.79 0.3ZM154.29-14.6L154.29-14.6 162.74-14.6Q164.74-14.6 165.69-15.35 166.64-16.1 166.64-18.1L166.64-18.1Q166.64-20.1 166.06-21.25 165.49-22.4 164.19-22.9 162.89-23.4 160.74-23.4L160.74-23.4Q158.29-23.4 156.86-22.65 155.44-21.9 154.86-20 154.29-18.1 154.29-14.6ZM187.19 0.3L187.19 0.3Q184.84 0.3 182.86-0.33 180.89-0.95 179.41-2.45 177.94-3.95 177.14-6.6 176.34-9.25 176.34-13.3L176.34-13.3Q176.34-17.45 177.09-20.13 177.84-22.8 179.26-24.33 180.69-25.85 182.74-26.45 184.79-27.05 187.34-27.05L187.34-27.05Q189.44-27.05 191.76-26.85 194.09-26.65 196.29-26.2L196.29-26.2 196.29-23.25 188.74-23.25Q186.29-23.25 184.64-22.48 182.99-21.7 182.19-19.53 181.39-17.35 181.39-13.25L181.39-13.25Q181.39-9.3 182.24-7.18 183.09-5.05 184.71-4.3 186.34-3.55 188.79-3.55L188.79-3.55 196.69-3.55 196.69-0.7Q195.54-0.4 193.96-0.18 192.39 0.05 190.66 0.18 188.94 0.3 187.19 0.3ZM206.73 0L201.73 0 201.73-38.15 206.73-38.15 206.73-23.85Q208.48-25.15 210.98-26.18 213.48-27.2 216.13-27.2L216.13-27.2Q219.03-27.2 220.86-26 222.68-24.8 223.53-22.73 224.38-20.65 224.38-18.05L224.38-18.05 224.38 0 219.38 0 219.38-17.45Q219.38-19 218.76-20.18 218.13-21.35 217.01-22 215.88-22.65 214.33-22.65L214.33-22.65Q212.83-22.65 211.56-22.35 210.28-22.05 209.13-21.5 207.98-20.95 206.73-20.25L206.73-20.25 206.73 0Z" opacity="1" transform="matrix(1,0,0,1,0,0)" fill="#c9efc7" class="wordmark-text-0" data-fill-palette-color="quaternary" id="text-0"></path></svg></g></svg></g><g transform="matrix(1,0,0,1,0,45.43981737683163)"><svg viewBox="0 0 213.1584412271571 6.702200141643043" height="6.702200141643043" width="213.1584412271571"><g transform="matrix(1,0,0,1,0,0)"><svg width="213.1584412271571" viewBox="4.300000190734863 -32.5 1047.949951171875 32.95000076293945" height="6.702200141643043" data-palette-color="#c9efc7"><path d="M15.55-4.15L23.3-4.4 23.6-3.95 23.25 0 4.3 0 4.65-9.65 4.3-32.1 23.35-32.1 23.65-31.65 23.25-27.7 15.65-27.9 9.55-27.85 9.4-18.5 15.2-18.4 20.5-18.55 20.85-18.15 20.45-14.2 14.8-14.35 9.35-14.25 9.3-10.1 9.45-4.2 15.55-4.15ZM58.45-32.1L61.5 0 56.9 0 56.25-9.75 54.75-24.25 54.4-24.25 46.15-3.55 42.05-3.55 34.4-24.25 33.95-24.25 32.45-10.2 31.65 0 27.3 0 30.65-32.1 36.55-32.1 38.05-27.3 44.2-10.25 44.6-10.25 51.1-27.45 52.6-32.1 58.45-32.1ZM79.45-32.15Q84.3-32.15 86.93-29.68 89.55-27.2 89.55-22.55L89.55-22.55Q89.55-17.15 86.23-14 82.9-10.85 77.1-10.85L77.1-10.85 73.55-10.85 73.55-10.1 73.8 0 68.55 0 68.9-9.65 68.55-32.1 79.45-32.15ZM78.6-14.85Q81.35-15.4 82.78-17.23 84.2-19.05 84.2-22.1L84.2-22.1Q84.2-25.1 82.68-26.55 81.15-28 78.05-28.1L78.05-28.1 73.8-27.95 73.6-14.95 78.6-14.85ZM107.35-32.5Q114-32.5 117.6-28.4 121.2-24.3 121.2-16.7L121.2-16.7Q121.2-8.5 117.35-4.03 113.5 0.45 106.4 0.45L106.4 0.45Q99.8 0.45 96.23-3.78 92.65-8 92.65-15.75L92.65-15.75Q92.65-23.8 96.48-28.15 100.3-32.5 107.35-32.5L107.35-32.5ZM106.95-28.3Q102.4-28.3 100.18-25.38 97.95-22.45 97.95-16.35L97.95-16.35Q97.95-9.7 100.13-6.63 102.3-3.55 106.85-3.55L106.85-3.55Q111.45-3.55 113.65-6.5 115.85-9.45 115.85-15.7L115.85-15.7Q115.85-22.25 113.68-25.28 111.5-28.3 106.95-28.3L106.95-28.3ZM166.45-32.1L155.35 0 149.95 0 144.3-17.25 143.95-17.25 138.1 0 132.65 0 122.95-32.1 128.05-32.1 128.6-28.65 135.5-5.5 135.9-5.5 142.2-24.1 139.65-32.1 144.9-32.1 145.7-28.15 152.7-5.5 153.1-5.5 160.85-28.35 161.65-32.1 166.45-32.1ZM182.3-4.15L190.05-4.4 190.35-3.95 190 0 171.05 0 171.4-9.65 171.05-32.1 190.1-32.1 190.4-31.65 190-27.7 182.4-27.9 176.3-27.85 176.15-18.5 181.95-18.4 187.25-18.55 187.6-18.15 187.2-14.2 181.55-14.35 176.1-14.25 176.05-10.1 176.2-4.2 182.3-4.15ZM210.4-12.85Q213.8-7.4 218.45-1.2L218.45-1.2 218.4-0.6Q216 0.2 213.45 0.45L213.45 0.45 212.85 0.05Q208.7-6.75 206.15-11.45L206.15-11.45 200.7-11.45 200.7-10.1 200.95 0 195.7 0 196.05-9.65 195.7-32.1 206.6-32.15Q211.45-32.15 214.1-29.73 216.75-27.3 216.75-22.8L216.75-22.8Q216.75-19.6 215.08-17.03 213.4-14.45 210.4-12.85L210.4-12.85ZM200.95-27.95L200.8-15.65 206.3-15.5Q211.35-17.05 211.35-22.4L211.35-22.4Q211.35-25.2 209.83-26.6 208.3-28 205.2-28.1L205.2-28.1 200.95-27.95ZM229.5-32.1L229.2-10.1 229.45 0 224.2 0 224.55-9.65 224.2-32.1 229.5-32.1ZM263.95-32.2L263.65-9.6 263.8 0 258.25 0 243.15-24.05 242.8-24.05 242.75-10.75 242.9 0 238.2 0 238.45-9.5 238.25-32.1 243.7-32.1 258.85-8.05 259.25-8.05 259.15-31.85 263.95-32.2ZM285.35-32.45Q290.4-32.45 294.75-30.3L294.75-30.3 293.7-25.5 293.15-25.45Q290.7-26.9 288.7-27.53 286.7-28.15 284.5-28.15L284.5-28.15Q279.5-28.15 277.05-25.13 274.6-22.1 274.6-15.6L274.6-15.6Q274.6-9.4 276.9-6.63 279.2-3.85 284.2-3.85L284.2-3.85Q285.45-3.85 286.68-4.08 287.9-4.3 289.75-4.85L289.75-4.85 289.9-8.1 289.75-13.05 294.6-13.4 294.5-8.9 294.65-1.55Q288.45 0.4 283.9 0.4L283.9 0.4Q276.55 0.4 272.9-3.68 269.25-7.75 269.25-15.35L269.25-15.35Q269.25-23.65 273.43-28.05 277.6-32.45 285.35-32.45L285.35-32.45ZM329.05-32.1L329.35-31.65 329.05-27.75 323.25-28.05 320.55-28.05 320.3-10.1 320.55 0 315.35 0 315.65-9.65 315.4-28.05 312.7-28.05 306.8-27.75 306.45-28.2 306.85-32.1 329.05-32.1ZM344.85-32.5Q351.5-32.5 355.1-28.4 358.7-24.3 358.7-16.7L358.7-16.7Q358.7-8.5 354.85-4.03 351 0.45 343.9 0.45L343.9 0.45Q337.3 0.45 333.72-3.78 330.15-8 330.15-15.75L330.15-15.75Q330.15-23.8 333.97-28.15 337.8-32.5 344.85-32.5L344.85-32.5ZM344.45-28.3Q339.9-28.3 337.68-25.38 335.45-22.45 335.45-16.35L335.45-16.35Q335.45-9.7 337.63-6.63 339.8-3.55 344.35-3.55L344.35-3.55Q348.95-3.55 351.15-6.5 353.35-9.45 353.35-15.7L353.35-15.7Q353.35-22.25 351.18-25.28 349-28.3 344.45-28.3L344.45-28.3ZM394.2-32.1L397.25 0 392.65 0 392-9.75 390.5-24.25 390.15-24.25 381.9-3.55 377.8-3.55 370.15-24.25 369.7-24.25 368.2-10.2 367.4 0 363.05 0 366.4-32.1 372.3-32.1 373.8-27.3 379.95-10.25 380.35-10.25 386.85-27.45 388.35-32.1 394.2-32.1ZM416.4-32.5Q423.05-32.5 426.65-28.4 430.25-24.3 430.25-16.7L430.25-16.7Q430.25-8.5 426.4-4.03 422.55 0.45 415.45 0.45L415.45 0.45Q408.85 0.45 405.27-3.78 401.7-8 401.7-15.75L401.7-15.75Q401.7-23.8 405.52-28.15 409.35-32.5 416.4-32.5L416.4-32.5ZM416-28.3Q411.45-28.3 409.23-25.38 407-22.45 407-16.35L407-16.35Q407-9.7 409.18-6.63 411.35-3.55 415.9-3.55L415.9-3.55Q420.5-3.55 422.7-6.5 424.9-9.45 424.9-15.7L424.9-15.7Q424.9-22.25 422.73-25.28 420.55-28.3 416-28.3L416-28.3ZM450.85-12.85Q454.25-7.4 458.9-1.2L458.9-1.2 458.85-0.6Q456.45 0.2 453.9 0.45L453.9 0.45 453.3 0.05Q449.15-6.75 446.6-11.45L446.6-11.45 441.15-11.45 441.15-10.1 441.4 0 436.15 0 436.5-9.65 436.15-32.1 447.05-32.15Q451.9-32.15 454.55-29.73 457.2-27.3 457.2-22.8L457.2-22.8Q457.2-19.6 455.52-17.03 453.85-14.45 450.85-12.85L450.85-12.85ZM441.4-27.95L441.25-15.65 446.75-15.5Q451.8-17.05 451.8-22.4L451.8-22.4Q451.8-25.2 450.27-26.6 448.75-28 445.65-28.1L445.65-28.1 441.4-27.95ZM479.35-12.85Q482.75-7.4 487.4-1.2L487.4-1.2 487.35-0.6Q484.95 0.2 482.4 0.45L482.4 0.45 481.8 0.05Q477.65-6.75 475.1-11.45L475.1-11.45 469.65-11.45 469.65-10.1 469.9 0 464.65 0 465-9.65 464.65-32.1 475.55-32.15Q480.4-32.15 483.05-29.73 485.7-27.3 485.7-22.8L485.7-22.8Q485.7-19.6 484.02-17.03 482.35-14.45 479.35-12.85L479.35-12.85ZM469.9-27.95L469.75-15.65 475.25-15.5Q480.3-17.05 480.3-22.4L480.3-22.4Q480.3-25.2 478.77-26.6 477.25-28 474.15-28.1L474.15-28.1 469.9-27.95ZM504.75-32.5Q511.4-32.5 515-28.4 518.6-24.3 518.6-16.7L518.6-16.7Q518.6-8.5 514.75-4.03 510.9 0.45 503.8 0.45L503.8 0.45Q497.2 0.45 493.62-3.78 490.05-8 490.05-15.75L490.05-15.75Q490.05-23.8 493.87-28.15 497.7-32.5 504.75-32.5L504.75-32.5ZM504.35-28.3Q499.8-28.3 497.57-25.38 495.35-22.45 495.35-16.35L495.35-16.35Q495.35-9.7 497.52-6.63 499.7-3.55 504.25-3.55L504.25-3.55Q508.85-3.55 511.05-6.5 513.25-9.45 513.25-15.7L513.25-15.7Q513.25-22.25 511.07-25.28 508.9-28.3 504.35-28.3L504.35-28.3ZM563.85-32.1L552.75 0 547.35 0 541.7-17.25 541.35-17.25 535.5 0 530.05 0 520.35-32.1 525.45-32.1 526-28.65 532.9-5.5 533.3-5.5 539.6-24.1 537.05-32.1 542.3-32.1 543.1-28.15 550.1-5.5 550.5-5.5 558.25-28.35 559.05-32.1 563.85-32.1ZM595.75-32.1L596.05-31.65 595.75-27.75 589.95-28.05 587.25-28.05 587-10.1 587.25 0 582.05 0 582.35-9.65 582.1-28.05 579.4-28.05 573.5-27.75 573.15-28.2 573.55-32.1 595.75-32.1ZM627.05-32.1L626.8-10.1 626.95 0 621.8 0 622.05-9.65 622-14 613.8-14.05 606.3-14 606.25-10.1 606.45 0 601.35 0 601.55-9.65 601.35-32.1 606.5-32.1 606.35-18.3 614.2-18.2 621.95-18.3 621.8-32.1 627.05-32.1ZM650.35-12.85Q653.75-7.4 658.4-1.2L658.4-1.2 658.35-0.6Q655.95 0.2 653.4 0.45L653.4 0.45 652.8 0.05Q648.65-6.75 646.1-11.45L646.1-11.45 640.65-11.45 640.65-10.1 640.9 0 635.65 0 636-9.65 635.65-32.1 646.55-32.15Q651.4-32.15 654.05-29.73 656.7-27.3 656.7-22.8L656.7-22.8Q656.7-19.6 655.02-17.03 653.35-14.45 650.35-12.85L650.35-12.85ZM640.9-27.95L640.75-15.65 646.25-15.5Q651.3-17.05 651.3-22.4L651.3-22.4Q651.3-25.2 649.77-26.6 648.25-28 645.15-28.1L645.15-28.1 640.9-27.95ZM675.75-32.5Q682.4-32.5 686-28.4 689.6-24.3 689.6-16.7L689.6-16.7Q689.6-8.5 685.75-4.03 681.9 0.45 674.8 0.45L674.8 0.45Q668.2 0.45 664.63-3.78 661.05-8 661.05-15.75L661.05-15.75Q661.05-23.8 664.88-28.15 668.7-32.5 675.75-32.5L675.75-32.5ZM675.35-28.3Q670.8-28.3 668.58-25.38 666.35-22.45 666.35-16.35L666.35-16.35Q666.35-9.7 668.52-6.63 670.7-3.55 675.25-3.55L675.25-3.55Q679.85-3.55 682.05-6.5 684.25-9.45 684.25-15.7L684.25-15.7Q684.25-22.25 682.08-25.28 679.9-28.3 675.35-28.3L675.35-28.3ZM719.45-32.1L719.3-15.8 719.25-12Q719.35-6.1 716.05-2.85 712.75 0.4 706.7 0.4L706.7 0.4Q700.85 0.4 697.75-2.73 694.65-5.85 694.75-11.6L694.75-11.6 694.85-16.05 694.75-32.1 699.85-32.1 699.65-12.3Q699.6-8.1 701.45-6.05 703.3-4 707.05-4L707.05-4Q714.55-4 714.5-11.8L714.5-11.8 714.25-32.1 719.45-32.1ZM740.65-32.45Q745.7-32.45 750.05-30.3L750.05-30.3 749-25.5 748.45-25.45Q746-26.9 744-27.53 742-28.15 739.8-28.15L739.8-28.15Q734.8-28.15 732.35-25.13 729.9-22.1 729.9-15.6L729.9-15.6Q729.9-9.4 732.2-6.63 734.5-3.85 739.5-3.85L739.5-3.85Q740.75-3.85 741.98-4.08 743.2-4.3 745.05-4.85L745.05-4.85 745.2-8.1 745.05-13.05 749.9-13.4 749.8-8.9 749.95-1.55Q743.75 0.4 739.2 0.4L739.2 0.4Q731.85 0.4 728.2-3.68 724.55-7.75 724.55-15.35L724.55-15.35Q724.55-23.65 728.73-28.05 732.9-32.45 740.65-32.45L740.65-32.45ZM782.95-32.1L782.7-10.1 782.85 0 777.7 0 777.95-9.65 777.9-14 769.7-14.05 762.2-14 762.15-10.1 762.35 0 757.25 0 757.45-9.65 757.25-32.1 762.4-32.1 762.25-18.3 770.1-18.2 777.85-18.3 777.7-32.1 782.95-32.1ZM818.8-32.1L819.1-31.65 818.8-27.75 813-28.05 810.3-28.05 810.05-10.1 810.3 0 805.1 0 805.4-9.65 805.15-28.05 802.45-28.05 796.55-27.75 796.2-28.2 796.6-32.1 818.8-32.1ZM835.5-4.15L843.25-4.4 843.55-3.95 843.2 0 824.25 0 824.6-9.65 824.25-32.1 843.3-32.1 843.6-31.65 843.2-27.7 835.6-27.9 829.5-27.85 829.35-18.5 835.15-18.4 840.45-18.55 840.8-18.15 840.4-14.2 834.75-14.35 829.3-14.25 829.25-10.1 829.4-4.2 835.5-4.15ZM860.2-32.45Q865.1-32.45 868.85-30.25L868.85-30.25 867.9-25.7 867.4-25.55Q864.05-28.15 860-28.15L860-28.15Q855.6-28.15 853.28-25.18 850.95-22.2 850.95-16.3L850.95-16.3Q850.95-10.25 853.3-7.1 855.65-3.95 860-3.95L860-3.95Q862.1-3.95 864.18-4.67 866.25-5.4 868-6.7L868-6.7 868.5-6.4 868.1-1.7Q863.8 0.4 859.6 0.4L859.6 0.4Q852.85 0.4 849.2-3.8 845.55-8 845.55-15.75L845.55-15.75Q845.55-23.75 849.38-28.1 853.2-32.45 860.2-32.45L860.2-32.45ZM899.95-32.1L899.7-10.1 899.85 0 894.7 0 894.95-9.65 894.9-14 886.7-14.05 879.2-14 879.15-10.1 879.35 0 874.25 0 874.45-9.65 874.25-32.1 879.4-32.1 879.25-18.3 887.1-18.2 894.85-18.3 894.7-32.1 899.95-32.1ZM935.8-32.1L936.1-31.65 935.8-27.75 930-28.05 927.3-28.05 927.05-10.1 927.3 0 922.1 0 922.4-9.65 922.15-28.05 919.45-28.05 913.55-27.75 913.2-28.2 913.6-32.1 935.8-32.1ZM951.6-32.5Q958.25-32.5 961.85-28.4 965.45-24.3 965.45-16.7L965.45-16.7Q965.45-8.5 961.6-4.03 957.75 0.45 950.65 0.45L950.65 0.45Q944.05 0.45 940.48-3.78 936.9-8 936.9-15.75L936.9-15.75Q936.9-23.8 940.73-28.15 944.55-32.5 951.6-32.5L951.6-32.5ZM951.2-28.3Q946.65-28.3 944.43-25.38 942.2-22.45 942.2-16.35L942.2-16.35Q942.2-9.7 944.38-6.63 946.55-3.55 951.1-3.55L951.1-3.55Q955.7-3.55 957.9-6.5 960.1-9.45 960.1-15.7L960.1-15.7Q960.1-22.25 957.93-25.28 955.75-28.3 951.2-28.3L951.2-28.3ZM983.55-32.3Q990.45-32.3 994.15-28.4 997.85-24.5 997.85-17.2L997.85-17.2Q997.85-8.75 993.8-4.23 989.75 0.3 982.15 0.3L982.15 0.3Q980 0.3 977 0.23 974 0.15 971.4 0L971.4 0 971.35 0 971.7-9.65 971.35-32.1 971.4-32.1 983.55-32.3ZM983.05-3.8Q987.65-3.8 990.08-6.85 992.5-9.9 992.5-16.05L992.5-16.05Q992.5-22.25 990.18-25.18 987.85-28.1 983.15-28.1L983.15-28.1Q980.4-28.1 976.6-27.9L976.6-27.9 976.35-10.1 976.5-4.15Q978.3-4 980.1-3.9 981.9-3.8 983.05-3.8L983.05-3.8ZM1016.85-32.1L1027.2 0 1021.9 0 1021.15-3.6 1019.75-8.05 1012.95-8.2 1006.8-8.05 1005.3-3.85 1004.5 0 999.35 0 1010.8-32.1 1016.85-32.1ZM1013.3-12.15L1018.45-12.25 1013.85-27.05 1013.5-27.05 1008.25-12.25 1013.3-12.15ZM1041.1-11.4L1041.05-9.2 1041.25 0 1036.1 0 1036.35-9.2 1036.3-11.15 1026.15-32.1 1031.65-32.1 1032.3-30.1 1038.65-16.65 1039.05-16.65 1046.1-30 1046.9-32.1 1052.25-32.1 1041.1-11.4Z" opacity="1" transform="matrix(1,0,0,1,0,0)" fill="#c9efc7" class="slogan-text-1" data-fill-palette-color="quaternary" id="text-1"></path></svg></g></svg></g></svg></g></svg></g><g transform="matrix(1,0,0,1,69.62523691586983,0)"><svg viewBox="0 0 73.90796739541743 72.060268210532" height="72.060268210532" width="73.90796739541743"><g><svg xmlns="http://www.w3.org/2000/svg" xmlns:xlink="http://www.w3.org/1999/xlink" version="1.1" x="0" y="0" viewBox="10 11 80 78" style="enable-background:new 0 0 100 100;" xml:space="preserve" height="72.060268210532" width="73.90796739541743" class="icon-icon-0" data-fill-palette-color="quaternary" id="icon-0"><g fill="#c9efc7" data-fill-palette-color="quaternary"><path d="M81 11c-5 0-9 4-9 9s4 9 9 9 9-4 9-9S86 11 81 11zM81 27c-3.9 0-7-3.1-7-7s3.1-7 7-7 7 3.1 7 7S84.9 27 81 27z" fill="#c9efc7" data-fill-palette-color="quaternary"></path><path d="M81 41c-2.6 0-4.9 1.1-6.6 2.9L57.3 25.3C58.4 23.8 59 22 59 20c0-5-4-9-9-9s-9 4-9 9 4 9 9 9c2.3 0 4.3-0.9 5.9-2.2l17.3 18.7C72.5 46.8 72 48.4 72 50c0 5 4 9 9 9s9-4 9-9S86 41 81 41zM50 27c-3.9 0-7-3.1-7-7s3.1-7 7-7 7 3.1 7 7S53.9 27 50 27zM81 57c-3.9 0-7-3.1-7-7s3.1-7 7-7 7 3.1 7 7S84.9 57 81 57z" fill="#c9efc7" data-fill-palette-color="quaternary"></path><path d="M50 59c5 0 9-4 9-9s-4-9-9-9-9 4-9 9S45 59 50 59zM50 43c3.9 0 7 3.1 7 7s-3.1 7-7 7-7-3.1-7-7S46.1 43 50 43z" fill="#c9efc7" data-fill-palette-color="quaternary"></path><path d="M19 89c5 0 9-4 9-9s-4-9-9-9-9 4-9 9S14 89 19 89zM19 73c3.9 0 7 3.1 7 7s-3.1 7-7 7-7-3.1-7-7S15.1 73 19 73z" fill="#c9efc7" data-fill-palette-color="quaternary"></path><path d="M81 71c-4.6 0-8.4 3.5-8.9 8H58.9c-0.5-4.5-4.3-8-8.9-8-3.2 0-6 1.7-7.6 4.2l-18-18c2.2-1.6 3.6-4.3 3.6-7.2 0-4.6-3.5-8.4-8-8.9V28.9c4.5-0.5 8-4.3 8-8.9 0-5-4-9-9-9s-9 4-9 9c0 4.6 3.5 8.4 8 8.9v12.1c-4.5 0.5-8 4.3-8 8.9 0 5 4 9 9 9 1.3 0 2.5-0.3 3.6-0.7l18.9 18.9C41.2 78 41 79 41 80c0 5 4 9 9 9 4.6 0 8.4-3.5 8.9-8h13.1c0.5 4.5 4.3 8 8.9 8 5 0 9-4 9-9S86 71 81 71zM12 20c0-3.9 3.1-7 7-7s7 3.1 7 7-3.1 7-7 7S12 23.9 12 20zM12 50c0-3.9 3.1-7 7-7s7 3.1 7 7-3.1 7-7 7S12 53.9 12 50zM50 87c-3.9 0-7-3.1-7-7s3.1-7 7-7 7 3.1 7 7S53.9 87 50 87zM81 87c-3.9 0-7-3.1-7-7s3.1-7 7-7 7 3.1 7 7S84.9 87 81 87z" fill="#c9efc7" data-fill-palette-color="quaternary"></path></g></svg></g></svg></g><g></g></svg></g></svg></g></svg></g></svg></g><defs></defs></svg><rect width="342.85155851775386" height="342.85155851775386" fill="none" stroke="none" visibility="hidden"></rect></g></svg></g></svg>